<svg width="15" height="17" viewBox="0 0 15 17" fill="none" xmlns="http://www.w3.org/2000/svg">
<path d="M1.1 14.9V10.1C1.1 8.40261 1.77428 6.77475 2.97451 5.57452C4.17475 4.37428 5.80261 3.7 7.5 3.7C9.19738 3.7 10.8252 4.37428 12.0255 5.57452C13.2257 6.77475 13.9 8.40261 13.9 10.1V14.9H14.7V16.5H0.299996V14.9H1.1ZM2.7 14.9H12.3V10.1C12.3 8.82696 11.7943 7.60606 10.8941 6.70589C9.99393 5.80571 8.77303 5.3 7.5 5.3C6.22696 5.3 5.00606 5.80571 4.10588 6.70589C3.20571 7.60606 2.7 8.82696 2.7 10.1V14.9ZM6.7 0.5H8.3V2.9H6.7V0.5ZM13.723 2.746L14.854 3.877L13.154 5.577L12.025 4.443L13.723 2.746ZM0.145996 3.877L1.277 2.746L2.977 4.446L1.838 5.575L0.145996 3.877ZM3.5 10.1C3.5 9.03913 3.92142 8.02172 4.67157 7.27157C5.42171 6.52143 6.43913 6.1 7.5 6.1V7.7C6.86348 7.7 6.25303 7.95286 5.80294 8.40294C5.35285 8.85303 5.1 9.46348 5.1 10.1H3.5Z" fill="#86858A"/>
</svg>
