<svg width="60" height="60" viewBox="0 0 60 60" fill="none" xmlns="http://www.w3.org/2000/svg">
<path d="M30 60C46.5685 60 60 46.5685 60 30C60 13.4315 46.5685 0 30 0C13.4315 0 0 13.4315 0 30C0 46.5685 13.4315 60 30 60Z" fill="#212121"/>
<path d="M30 59.5C46.2924 59.5 59.5 46.2924 59.5 30C59.5 13.7076 46.2924 0.5 30 0.5C13.7076 0.5 0.5 13.7076 0.5 30C0.5 46.2924 13.7076 59.5 30 59.5Z" stroke="#097944"/>
<path d="M28.7392 40.1351C26.4532 40.1351 24.1662 40.1451 21.8802 40.1351C21.5543 40.1485 21.2302 40.079 20.9384 39.9333C20.6465 39.7875 20.3963 39.5702 20.2112 39.3015C20.026 39.0329 19.912 38.7218 19.8796 38.3971C19.8473 38.0725 19.8977 37.745 20.0262 37.4451C20.1566 37.1079 20.3819 36.8157 20.6749 36.6039C20.968 36.3922 21.3161 36.27 21.6772 36.2521C24.2378 35.9963 26.6967 35.1174 28.8392 33.6921C30.7508 32.4659 32.3846 30.8532 33.6355 28.9577C34.8864 27.0622 35.7266 24.9259 36.1022 22.6861C36.1632 22.3581 36.1962 22.0231 36.2362 21.6911C36.2722 21.1979 36.4946 20.7369 36.8583 20.4019C37.222 20.0669 37.6997 19.8829 38.1941 19.8875C38.6886 19.8921 39.1628 20.0849 39.5202 20.4266C39.8776 20.7683 40.0914 21.2333 40.1182 21.7271C40.1342 21.8931 40.1302 22.0611 40.1302 22.2271C40.1302 26.5224 40.1302 30.8178 40.1302 35.1131C40.1635 35.7825 40.0559 36.4514 39.8144 37.0766C39.5728 37.7018 39.2028 38.2693 38.7281 38.7425C38.2534 39.2157 37.6847 39.5839 37.0587 39.8235C36.4328 40.063 35.7635 40.1685 35.0942 40.1331H28.7392" fill="#00E076"/>
<path d="M26.5154 19.867C27.9934 19.867 29.4724 19.867 30.9504 19.867C31.1875 19.8378 31.4281 19.868 31.6505 19.9549C31.873 20.0419 32.0703 20.1829 32.2247 20.3651C32.3791 20.5474 32.4857 20.7652 32.5349 20.999C32.584 21.2327 32.5743 21.475 32.5064 21.704C32.1178 24.5536 30.7617 27.1831 28.6654 29.152C26.8847 30.8666 24.6337 32.012 22.1994 32.442C21.9505 32.5046 21.6913 32.5149 21.4382 32.472C21.1852 32.4292 20.9438 32.3343 20.7293 32.1932C20.5149 32.0522 20.332 31.8682 20.1925 31.6528C20.0529 31.4374 19.9595 31.1954 19.9184 30.942C19.8678 30.6913 19.869 30.4329 19.922 30.1826C19.975 29.9324 20.0786 29.6956 20.2266 29.4869C20.3745 29.2782 20.5635 29.102 20.7821 28.9691C21.0006 28.8362 21.244 28.7494 21.4974 28.714C22.8002 28.4803 24.0342 27.9582 25.1092 27.186C26.1842 26.4138 27.0729 25.411 27.7104 24.251C27.9644 23.807 27.8974 23.688 27.3844 23.686C25.5554 23.68 23.7264 23.686 21.8974 23.68C21.4435 23.7134 20.9931 23.5803 20.6302 23.3057C20.2673 23.0312 20.0167 22.6339 19.9254 22.188C19.8585 21.8961 19.8616 21.5925 19.9344 21.302C20.0073 21.0114 20.1477 20.7422 20.3444 20.5163C20.541 20.2904 20.7883 20.1142 21.066 20.0021C21.3437 19.8899 21.644 19.845 21.9424 19.871C23.4664 19.852 24.9904 19.871 26.5154 19.871" fill="white"/>
</svg>
