<svg width="19" height="15" viewBox="0 0 19 15" fill="none" xmlns="http://www.w3.org/2000/svg">
<path d="M9.49609 0.952026C14.4671 0.952026 18.4961 3.15203 18.4961 5.86103V9.13403C18.4961 11.845 14.4671 14.043 9.49609 14.043C4.61409 14.043 0.640094 11.923 0.496094 9.27903V9.13403V5.86403C0.496094 3.15203 4.53009 0.952026 9.49609 0.952026ZM9.49609 10.77C6.8828 10.8692 4.30513 10.139 2.13209 8.68403V9.13403C2.13209 10.674 5.30909 12.407 9.49609 12.407C13.5961 12.407 16.7271 10.746 16.8561 9.23103V9.13103V8.68103C14.6849 10.1375 12.1087 10.8697 9.49609 10.773V10.77ZM9.49609 2.58803C5.30909 2.58803 2.13209 4.32103 2.13209 5.86103C2.13209 7.40103 5.31409 9.13703 9.49609 9.13703C13.6781 9.13703 16.8601 7.40403 16.8601 5.86403C16.8601 4.32403 13.6881 2.59103 9.49609 2.59103V2.58803Z" fill="#86858A"/>
</svg>
