<svg width="36" height="36" viewBox="0 0 36 36" fill="none" xmlns="http://www.w3.org/2000/svg">
<path d="M0 8.526C0 10.2123 0.500041 11.8607 1.43689 13.2628C2.37374 14.6649 3.70532 15.7577 5.26324 16.403C6.82116 17.0483 8.53546 17.2172 10.1893 16.8882C11.8432 16.5592 13.3624 15.7472 14.5548 14.5548C15.7472 13.3624 16.5592 11.8432 16.8882 10.1893C17.2172 8.53546 17.0483 6.82116 16.403 5.26324C15.7577 3.70532 14.6649 2.37374 13.2628 1.43689C11.8607 0.500041 10.2123 0 8.526 0C6.26476 0 4.09614 0.898273 2.49721 2.49721C0.898273 4.09614 0 6.26476 0 8.526ZM0 27.474C0 29.1603 0.500041 30.8087 1.43689 32.2108C2.37374 33.6129 3.70532 34.7057 5.26324 35.351C6.82116 35.9963 8.53546 36.1652 10.1893 35.8362C11.8432 35.5072 13.3624 34.6952 14.5548 33.5028C15.7472 32.3104 16.5592 30.7912 16.8882 29.1373C17.2172 27.4835 17.0483 25.7692 16.403 24.2112C15.7577 22.6533 14.6649 21.3217 13.2628 20.3849C11.8607 19.448 10.2123 18.948 8.526 18.948C6.26476 18.948 4.09614 19.8463 2.49721 21.4452C0.898273 23.0441 0 25.2128 0 27.474ZM18.948 27.474C18.948 29.1603 19.448 30.8087 20.3849 32.2108C21.3217 33.6129 22.6533 34.7057 24.2112 35.351C25.7692 35.9963 27.4835 36.1652 29.1373 35.8362C30.7912 35.5072 32.3104 34.6952 33.5028 33.5028C34.6952 32.3104 35.5072 30.7912 35.8362 29.1373C36.1652 27.4835 35.9963 25.7692 35.351 24.2112C34.7057 22.6533 33.6129 21.3217 32.2108 20.3849C30.8087 19.448 29.1603 18.948 27.474 18.948C25.2128 18.948 23.0441 19.8463 21.4452 21.4452C19.8463 23.0441 18.948 25.2128 18.948 27.474ZM13.264 8.526C13.264 9.46261 12.9863 10.3782 12.466 11.157C11.9457 11.9358 11.2061 12.5428 10.3409 12.9013C9.47558 13.2598 8.52343 13.3537 7.60479 13.1711C6.68615 12.9886 5.84227 12.5377 5.17985 11.8756C4.51743 11.2134 4.06621 10.3697 3.88324 9.45117C3.70028 8.53261 3.79378 7.58042 4.15193 6.715C4.51008 5.84957 5.1168 5.10977 5.89536 4.58913C6.67393 4.06849 7.58939 3.7904 8.526 3.79C9.14811 3.78974 9.76417 3.91204 10.339 4.14993C10.9138 4.38782 11.4362 4.73663 11.8762 5.17643C12.3161 5.61624 12.6652 6.13842 12.9033 6.71315C13.1414 7.28788 13.264 7.90389 13.264 8.526ZM13.264 27.474C13.264 28.4107 12.9862 29.3263 12.4658 30.1052C11.9454 30.884 11.2058 31.491 10.3404 31.8495C9.475 32.208 8.52275 32.3017 7.60405 32.119C6.68536 31.9363 5.84148 31.4852 5.17914 30.8229C4.5168 30.1605 4.06574 29.3166 3.883 28.3979C3.70026 27.4793 3.79405 26.527 4.15251 25.6616C4.51096 24.7962 5.11799 24.0566 5.89682 23.5362C6.67565 23.0158 7.59131 22.738 8.528 22.738C9.78407 22.738 10.9887 23.237 11.8769 24.1251C12.765 25.0133 13.264 26.2179 13.264 27.474ZM32.212 27.474C32.212 28.4107 31.9342 29.3263 31.4138 30.1052C30.8934 30.884 30.1538 31.491 29.2884 31.8495C28.423 32.208 27.4707 32.3017 26.5521 32.119C25.6334 31.9363 24.7895 31.4852 24.1271 30.8229C23.4648 30.1605 23.0137 29.3166 22.831 28.3979C22.6483 27.4793 22.742 26.527 23.1005 25.6616C23.459 24.7962 24.066 24.0566 24.8448 23.5362C25.6237 23.0158 26.5393 22.738 27.476 22.738C28.7317 22.7385 29.9358 23.2377 30.8236 24.1258C31.7113 25.014 32.21 26.2183 32.21 27.474H32.212ZM25.58 16.106V10.422H19.894V6.632H25.578V0.948H29.368V6.632H35.052V10.422H29.368V16.106H25.58Z" fill="#86858A"/>
</svg>
