<svg width="17" height="14" viewBox="0 0 17 14" fill="none" xmlns="http://www.w3.org/2000/svg">
<path d="M9.22712 10.592V12.092H12.8631V13.547H4.13612V12.091H7.77312V10.591C6.36709 10.4137 5.07409 9.72942 4.13675 8.66652C3.19942 7.60362 2.68219 6.23519 2.68212 4.81803V0.452026H14.3181V4.81803C14.3183 6.23536 13.8012 7.60404 12.8638 8.66715C11.9265 9.73026 10.6333 10.4147 9.22712 10.592ZM4.13612 1.90903V4.81803C4.15346 5.96386 4.62082 7.05689 5.43725 7.86105C6.25368 8.66521 7.35365 9.11597 8.49962 9.11597C9.64558 9.11597 10.7456 8.66521 11.562 7.86105C12.3784 7.05689 12.8458 5.96386 12.8631 4.81803V1.90903H4.13612ZM0.495117 1.90903H1.95412V4.81803H0.495117V1.90903ZM15.0401 1.90903H16.4951V4.81803H15.0451L15.0401 1.90903Z" fill="#86858A"/>
</svg>
