<svg width="146" height="33" viewBox="0 0 146 33" fill="none" xmlns="http://www.w3.org/2000/svg">
<path d="M13.8002 32.27C10.2422 32.27 6.68522 32.286 3.12822 32.263C2.62067 32.285 2.11583 32.1778 1.66105 31.9514C1.20626 31.725 0.81642 31.3868 0.528077 30.9685C0.239733 30.5503 0.0623336 30.0656 0.0125099 29.56C-0.0373137 29.0545 0.042071 28.5445 0.243221 28.078C0.446037 27.5533 0.796682 27.0987 1.25266 26.7693C1.70864 26.4399 2.25038 26.2497 2.81222 26.222C6.79654 25.8262 10.6233 24.4608 13.9582 22.245C16.9324 20.337 19.4743 17.8276 21.4204 14.8783C23.3666 11.9289 24.6739 8.60492 25.2582 5.12C25.3582 4.609 25.4042 4.089 25.4672 3.572C25.5222 2.80405 25.8678 2.08591 26.4337 1.56386C26.9996 1.0418 27.7432 0.755078 28.5131 0.762088C29.2829 0.769099 30.0212 1.06931 30.5775 1.60159C31.1338 2.13387 31.4663 2.85817 31.5072 3.627C31.5322 3.885 31.5262 4.147 31.5262 4.408C31.5262 11.092 31.5262 17.7757 31.5262 24.459C31.5779 25.5006 31.4104 26.5414 31.0346 27.5141C30.6587 28.4869 30.0829 29.3699 29.3443 30.1062C28.6057 30.8424 27.7209 31.4154 26.7469 31.7881C25.773 32.1609 24.7316 32.325 23.6902 32.27C20.3936 32.27 17.0969 32.27 13.8002 32.27Z" fill="#00E076"/>
<path d="M10.3414 0.734015C12.6414 0.734015 14.9414 0.727015 17.2414 0.734015C17.6102 0.688507 17.9846 0.735517 18.3307 0.870805C18.6768 1.00609 18.9838 1.2254 19.224 1.50896C19.4642 1.79252 19.6301 2.1314 19.7066 2.49506C19.7831 2.85871 19.768 3.2357 19.6624 3.59202C19.0582 8.02574 16.9487 12.1172 13.6874 15.181C10.9169 17.8486 7.41474 19.6307 3.62742 20.3C3.23985 20.3973 2.83631 20.4129 2.44237 20.3459C2.04844 20.279 1.67272 20.1309 1.33904 19.9111C1.00535 19.6913 0.720993 19.4045 0.503986 19.069C0.286978 18.7335 0.142061 18.3565 0.0784232 17.962C0.000323161 17.5723 0.00270449 17.1707 0.085421 16.7819C0.168138 16.3931 0.329444 16.0253 0.559437 15.7011C0.789431 15.3769 1.08326 15.1031 1.42288 14.8966C1.76251 14.69 2.14076 14.5551 2.53442 14.5C4.56124 14.1361 6.48107 13.3237 8.15348 12.1222C9.82589 10.9208 11.2086 9.36065 12.2004 7.55602C12.6004 6.86502 12.4914 6.68002 11.6934 6.67702C8.84742 6.66702 6.00142 6.67702 3.15642 6.66702C2.45006 6.71907 1.74891 6.51206 1.18408 6.08471C0.619249 5.65736 0.229401 5.03892 0.0874232 4.34502C-0.0151367 3.89092 -0.00921932 3.41905 0.104696 2.96767C0.21861 2.51629 0.437315 2.09812 0.743069 1.74707C1.04882 1.39602 1.43302 1.12199 1.86449 0.94719C2.29595 0.772393 2.76255 0.701759 3.22642 0.741015C5.59842 0.712015 7.96942 0.734015 10.3414 0.734015Z" fill="white"/>
<path d="M47.6672 5.788C49.0399 5.75704 50.4038 6.01638 51.6693 6.54905C52.9349 7.08172 54.0737 7.8757 55.0112 8.879C55.9904 9.88604 56.7577 11.0793 57.2675 12.3882C57.7773 13.6971 58.0193 15.0949 57.9792 16.499C58.0193 17.9031 57.7773 19.3009 57.2675 20.6098C56.7577 21.9187 55.9904 23.112 55.0112 24.119C54.0737 25.1223 52.9349 25.9162 51.6693 26.4489C50.4037 26.9815 49.0399 27.2409 47.6672 27.21H39.1592V5.788H47.6672ZM47.6672 23.171C48.5091 23.2031 49.3481 23.056 50.1289 22.7395C50.9097 22.423 51.6143 21.9443 52.1962 21.335C53.3877 20.0136 54.0138 18.2778 53.9402 16.5C53.979 15.6246 53.845 14.7501 53.5458 13.9265C53.2465 13.1029 52.7879 12.3463 52.1962 11.7C51.6206 11.0806 50.9178 10.5931 50.136 10.2708C49.3543 9.94856 48.5121 9.79921 47.6672 9.833H43.3822V23.171H47.6672Z" fill="white"/>
<path d="M70.8954 11.909H74.8434V27.209H70.8954V25.405C70.3009 26.1461 69.5386 26.7352 68.6714 27.1237C67.8043 27.5121 66.8572 27.6887 65.9084 27.639C64.9156 27.6496 63.9321 27.4475 63.0239 27.0463C62.1158 26.6451 61.3041 26.054 60.6434 25.313C59.2014 23.7495 58.4227 21.6873 58.4714 19.561C58.4226 17.4436 59.2019 15.3907 60.6434 13.839C61.3025 13.0939 62.1133 12.4983 63.0213 12.0919C63.9293 11.6856 64.9136 11.478 65.9084 11.483C66.8572 11.4332 67.8043 11.6098 68.6714 11.9983C69.5386 12.3867 70.3009 12.9758 70.8954 13.717V11.909ZM66.6414 23.874C67.2012 23.8925 67.7589 23.7961 68.28 23.5907C68.8012 23.3854 69.2747 23.0754 69.6714 22.68C70.0775 22.2711 70.3956 21.7835 70.6061 21.2471C70.8166 20.7107 70.9151 20.1369 70.8954 19.561C70.9182 18.9889 70.821 18.4184 70.6102 17.886C70.3994 17.3537 70.0796 16.8714 69.6714 16.47C68.8584 15.6848 67.7722 15.2459 66.6419 15.2459C65.5116 15.2459 64.4254 15.6848 63.6124 16.47C63.2136 16.877 62.9019 17.361 62.6961 17.8924C62.4903 18.4238 62.3948 18.9915 62.4154 19.561C62.3981 20.1346 62.4954 20.706 62.7014 21.2417C62.9074 21.7774 63.2181 22.2667 63.6154 22.681C64.012 23.0763 64.4854 23.3862 65.0063 23.5915C65.5272 23.7969 66.0847 23.8933 66.6444 23.875" fill="white"/>
<path d="M80.842 14.541C81.2095 13.6239 81.857 12.8462 82.6923 12.3187C83.5276 11.7912 84.5081 11.5407 85.494 11.603V16.01C84.3589 15.8417 83.2018 16.1039 82.25 16.745C81.7636 17.1044 81.3783 17.5836 81.1316 18.1358C80.8849 18.6881 80.7852 19.2948 80.842 19.897V27.211H76.894V11.911H80.842V14.541Z" fill="white"/>
<path d="M100.366 27.211H95.7764L90.2064 20.264V27.211H86.2554V9.461L90.2034 5.789V18.642L95.4674 11.91H100.18L94.0294 19.469L100.366 27.211Z" fill="white"/>
<path d="M121.82 22.345L125.431 20.234C125.771 21.25 126.441 22.1236 127.333 22.7166C128.225 23.3096 129.29 23.5881 130.358 23.508C132.715 23.508 133.786 22.56 133.786 21.244C133.797 20.8881 133.708 20.5362 133.53 20.228C133.351 19.9199 133.09 19.6677 132.776 19.5C131.638 18.8853 130.424 18.4223 129.165 18.123C127.581 17.7276 126.079 17.0542 124.729 16.134C124.058 15.6206 123.522 14.9504 123.17 14.1821C122.818 13.4138 122.659 12.5708 122.708 11.727C122.67 10.8507 122.836 9.97746 123.191 9.17575C123.547 8.37404 124.084 7.66562 124.759 7.10598C126.157 5.93828 127.931 5.31783 129.751 5.35998C131.357 5.32179 132.938 5.75646 134.298 6.60991C135.658 7.46336 136.737 8.69792 137.401 10.16L133.851 12.211C133.535 11.3851 132.972 10.6771 132.238 10.184C131.504 9.69098 130.635 9.43703 129.751 9.45698C128.006 9.45698 126.935 10.344 126.935 11.599C126.93 11.9205 127.002 12.2385 127.146 12.526C127.29 12.8136 127.501 13.0623 127.761 13.251C128.777 13.843 129.869 14.2957 131.005 14.597L132.474 15.086C132.943 15.2322 133.403 15.4059 133.851 15.606C134.324 15.7651 134.776 15.981 135.197 16.249C136.004 16.7237 136.694 17.3729 137.217 18.149C137.756 19.0667 138.033 20.1148 138.017 21.179C138.051 22.0815 137.871 22.9792 137.492 23.799C137.113 24.6189 136.545 25.3377 135.836 25.897C134.231 27.1146 132.249 27.732 130.236 27.642C125.982 27.642 123.014 25.622 121.82 22.347" fill="#00E076"/>
<path d="M140.658 26.843C140.294 26.4796 140.046 26.0163 139.945 25.5118C139.844 25.0073 139.895 24.4843 140.092 24.0088C140.289 23.5334 140.622 23.127 141.049 22.8411C141.477 22.5552 141.98 22.4025 142.495 22.4025C143.009 22.4025 143.512 22.5552 143.94 22.8411C144.367 23.127 144.701 23.5334 144.897 24.0088C145.094 24.4843 145.145 25.0073 145.044 25.5118C144.943 26.0163 144.695 26.4796 144.331 26.843C143.844 27.3294 143.183 27.6025 142.495 27.6025C141.806 27.6025 141.145 27.3294 140.658 26.843Z" fill="white"/>
<path d="M111.109 27.64C109.643 27.6581 108.187 27.3819 106.829 26.8279C105.471 26.2739 104.237 25.4533 103.202 24.4144C102.166 23.3756 101.349 22.1398 100.799 20.7799C100.249 19.42 99.9778 17.9637 100 16.497C100 15.0362 100.288 13.5896 100.847 12.24C101.406 10.8904 102.225 9.66409 103.258 8.63113C104.291 7.59817 105.518 6.77878 106.867 6.21975C108.217 5.66072 109.663 5.37299 111.124 5.37299C112.585 5.37299 114.032 5.66072 115.381 6.21975C116.731 6.77878 117.957 7.59817 118.99 8.63113C120.023 9.66409 120.843 10.8904 121.402 12.24C121.961 13.5896 122.248 15.0362 122.248 16.497C122.264 17.9643 121.987 19.42 121.432 20.7787C120.878 22.1375 120.058 23.3719 119.021 24.4097C117.983 25.4475 116.749 26.2678 115.391 26.8225C114.032 27.3772 112.577 27.6551 111.109 27.64ZM111.109 23.509C112.021 23.5355 112.928 23.3754 113.775 23.0385C114.622 22.7016 115.392 22.1951 116.036 21.55C116.694 20.8883 117.21 20.0992 117.552 19.2309C117.894 18.3627 118.055 17.4337 118.025 16.501C118.055 15.5683 117.894 14.6393 117.552 13.7711C117.21 12.9028 116.694 12.1136 116.036 11.452C114.713 10.1767 112.947 9.46419 111.109 9.46419C109.272 9.46419 107.506 10.1767 106.182 11.452C105.524 12.1136 105.008 12.9027 104.666 13.771C104.324 14.6392 104.163 15.5682 104.192 16.501C104.163 17.4338 104.324 18.3628 104.666 19.231C105.008 20.0992 105.524 20.8884 106.182 21.55C106.827 22.1951 107.596 22.7016 108.443 23.0385C109.291 23.3754 110.198 23.5355 111.109 23.509Z" fill="#00E076"/>
</svg>
