<svg width="37" height="37" viewBox="0 0 37 37" fill="none" xmlns="http://www.w3.org/2000/svg">
<path d="M3.53587 17.6128C3.53118 13.9692 4.94289 10.4664 7.47282 7.84436C7.70292 8.05621 7.88628 8.31375 8.01117 8.60052C8.30016 9.35515 8.42281 10.1633 8.37076 10.9697C8.32843 11.4852 8.39135 12.0039 8.55569 12.4943C8.81048 13.0368 9.90567 13.269 10.8735 13.4703H10.9084C11.2433 13.5402 11.5865 13.6121 11.8988 13.7005C12.7564 14.0484 13.4964 14.6345 14.0317 15.3895C14.2493 15.6683 14.4966 15.9225 14.7693 16.1477C15.0215 15.9108 15.1999 15.6062 15.283 15.2703C15.3415 15.1221 15.3647 14.9624 15.3507 14.8037C15.3368 14.645 15.2862 14.4917 15.2029 14.3559C14.8023 13.7372 14.5391 13.0397 14.431 12.3106C14.3229 11.5815 14.3724 10.8376 14.5762 10.1293C15.0549 8.8286 16.5529 8.92312 17.6481 8.99503C18.0039 9.03008 18.362 9.03489 18.7186 9.00942C19.5405 8.90462 19.9515 7.9245 20.1898 7.31217C20.2441 7.16132 20.3129 7.01611 20.3953 6.87861C21.2219 6.02001 22.1556 5.2714 23.1734 4.65124C24.989 5.43252 26.6206 6.58598 27.9628 8.03711C29.3049 9.48824 30.3277 11.2048 30.9651 13.0758C32.4495 13.5832 33.8385 14.3353 35.0746 15.3011C34.6431 12.0427 33.3084 8.96999 31.2215 6.43057C29.1347 3.89115 26.3789 1.98634 23.2658 0.931555C20.1527 -0.123226 16.8066 -0.285883 13.606 0.461979C10.4053 1.20984 7.4777 2.83838 5.15436 5.16342C2.83101 7.48845 1.2046 10.4172 0.459068 13.6184C-0.286466 16.8197 -0.121374 20.1656 0.935672 23.2779C1.99272 26.3902 3.89954 29.1446 6.44048 31.2297C8.98142 33.3147 12.0551 34.6471 15.3138 35.0763C14.348 33.8402 13.5959 32.4511 13.0885 30.9667C10.3009 30.0176 7.88046 28.2193 6.16716 25.8242C4.45386 23.4291 3.53369 20.5576 3.53587 17.6128ZM26.4322 19.3737C25.0387 19.3737 23.6765 19.7869 22.5178 20.5611C21.3591 21.3353 20.456 22.4358 19.9227 23.7232C19.3895 25.0107 19.2499 26.4273 19.5218 27.7941C19.7937 29.1609 20.4647 30.4163 21.4501 31.4017C22.4355 32.3871 23.6909 33.0581 25.0577 33.33C26.4244 33.6018 27.8411 33.4623 29.1286 32.929C30.416 32.3957 31.5164 31.4927 32.2906 30.334C33.0648 29.1753 33.4781 27.8131 33.4781 26.4195C33.4775 24.5512 32.7349 22.7596 31.4137 21.4387C30.0924 20.1178 28.3005 19.3737 26.4322 19.3737ZM15.8645 26.4195C15.8645 24.3294 16.4843 22.2863 17.6455 20.5484C18.8067 18.8106 20.4571 17.4561 22.3881 16.6562C24.3191 15.8564 26.444 15.6471 28.4939 16.0549C30.5438 16.4626 32.4268 17.4691 33.9047 18.947C35.3827 20.4249 36.3891 22.3079 36.7969 24.3579C37.2046 26.4078 36.9954 28.5326 36.1955 30.4636C35.3957 32.3946 34.0412 34.0451 32.3033 35.2063C30.5655 36.3674 28.5223 36.9872 26.4322 36.9872C25.0445 36.9872 23.6703 36.7139 22.3881 36.1828C21.106 35.6517 19.941 34.8733 18.9597 33.892C16.9779 31.9102 15.8645 29.2223 15.8645 26.4195ZM24.6713 21.1367V28.1825H31.7171V24.6586H28.1932V21.1367H24.6713Z" fill="#86858A"/>
</svg>
