<svg width="17" height="17" viewBox="0 0 17 17" fill="none" xmlns="http://www.w3.org/2000/svg">
<path d="M8.38895 0.900971C8.77377 0.644442 9.22483 0.505231 9.68729 0.50026C10.1498 0.495289 10.6037 0.624773 10.994 0.872971L14.3 2.97297H15.659C15.8711 2.97297 16.0746 3.05726 16.2246 3.20729C16.3747 3.35731 16.459 3.5608 16.459 3.77297V10.933C16.459 11.038 16.4383 11.1421 16.3981 11.2391C16.3579 11.3362 16.2989 11.4244 16.2246 11.4987C16.1503 11.5729 16.0622 11.6319 15.9651 11.6721C15.868 11.7123 15.764 11.733 15.659 11.733H14.451C14.4763 12.1203 14.3944 12.5071 14.2141 12.8508C14.0337 13.1945 13.7621 13.4818 13.429 13.681L9.37695 16.112C9.12797 16.2612 8.84291 16.3396 8.55262 16.3385C8.26232 16.3375 7.97784 16.257 7.72995 16.106C7.45078 16.3523 7.09411 16.493 6.72195 16.5036C6.34979 16.5142 5.98569 16.394 5.69295 16.164L1.60295 12.951C1.31731 12.7265 1.11703 12.4111 1.03536 12.0571C0.953685 11.7032 0.995532 11.3319 1.15395 11.005C0.963329 10.8557 0.809295 10.6648 0.703585 10.447C0.597875 10.2292 0.543277 9.9901 0.543951 9.74797V3.77197C0.543951 3.5598 0.628237 3.35631 0.778266 3.20629C0.928295 3.05626 1.13178 2.97197 1.34395 2.97197H5.27495L8.38895 0.900971ZM2.27195 9.85397L2.82295 9.37197C3.29351 8.96032 3.90679 8.74972 4.53098 8.78543C5.15516 8.82115 5.74042 9.10033 6.16095 9.56297L8.31095 11.928C8.64797 12.2988 8.85975 12.7662 8.91629 13.2641C8.97283 13.762 8.87125 14.265 8.62595 14.702L12.61 12.313C12.7142 12.2502 12.7933 12.1531 12.8337 12.0382C12.874 11.9234 12.873 11.7982 12.831 11.684L9.30895 6.75197C9.21206 6.61731 9.07571 6.5161 8.91877 6.46235C8.76182 6.40861 8.59205 6.40498 8.43295 6.45197L6.45595 7.04497C6.04309 7.16848 5.60449 7.17792 5.18669 7.07228C4.7689 6.96665 4.38749 6.74987 4.08295 6.44497L3.84995 6.21297C3.63843 6.00198 3.49067 5.73564 3.42364 5.4445C3.3566 5.15336 3.373 4.84922 3.47095 4.56697H2.13495V9.74697L2.27195 9.85397ZM10.144 2.21297C10.0137 2.13078 9.86259 2.08791 9.70862 2.08951C9.55466 2.0911 9.40442 2.1371 9.27595 2.22197L4.97595 5.08697L5.20895 5.31997C5.31073 5.42121 5.43787 5.4932 5.57704 5.52839C5.71621 5.56358 5.86229 5.56067 5.99995 5.51997L7.97695 4.92697C8.45413 4.78401 8.96409 4.79393 9.43535 4.95532C9.90662 5.11671 10.3156 5.4215 10.605 5.82697L13.683 10.136H14.864V4.56797H14.3C13.9974 4.56786 13.7012 4.48148 13.446 4.31897L10.144 2.21297ZM3.87095 10.57L2.58495 11.695L6.67495 14.913L7.23495 13.933C7.31796 13.7871 7.35298 13.6187 7.33503 13.4518C7.31708 13.2849 7.24709 13.1279 7.13495 13.003L4.98495 10.638C4.84472 10.4837 4.64983 10.3903 4.44177 10.3776C4.2337 10.3649 4.0289 10.4339 3.87095 10.57Z" fill="#86858A"/>
</svg>
