<svg width="36" height="44" viewBox="0 0 36 44" fill="none" xmlns="http://www.w3.org/2000/svg">
<path d="M28 4H34C34.5304 4 35.0391 4.21071 35.4142 4.58579C35.7893 4.96086 36 5.46957 36 6V42C36 42.5304 35.7893 43.0391 35.4142 43.4142C35.0391 43.7893 34.5304 44 34 44H2C1.46957 44 0.960859 43.7893 0.585786 43.4142C0.210714 43.0391 0 42.5304 0 42V6C0 5.46957 0.210714 4.96086 0.585786 4.58579C0.960859 4.21071 1.46957 4 2 4H8V0H12V4H24V0H28V4ZM28 8V12H24V8H12V12H8V8H4V40H32V8H28ZM8 16H28V20H8V16ZM8 24H28V28H8V24Z" fill="#86858A"/>
</svg>
