<svg width="16" height="16" viewBox="0 0 16 16" fill="none" xmlns="http://www.w3.org/2000/svg">
<path d="M10.4 1.6H2.40005V14.4H13.6V4.8H10.4V1.6ZM0.800049 0.793C0.801895 0.582042 0.886994 0.380353 1.03682 0.231834C1.18665 0.0833159 1.38908 -8.0756e-06 1.60005 5.87035e-10H11.2L15.2 4V15.194C15.2008 15.2991 15.1809 15.4034 15.1414 15.5008C15.1018 15.5983 15.0435 15.6869 14.9696 15.7618C14.8958 15.8367 14.8079 15.8962 14.7111 15.9371C14.6142 15.978 14.5102 15.9993 14.405 16H1.59505C1.38495 15.9987 1.1838 15.9148 1.03505 15.7664C0.886294 15.618 0.801883 15.4171 0.800049 15.207V0.793ZM8.80005 8V11.2H7.20005V8H4.80005L8.00005 4.8L11.2 8H8.80005Z" fill="#86858A"/>
</svg>
