<svg width="16" height="14" viewBox="0 0 16 14" fill="none" xmlns="http://www.w3.org/2000/svg">
<path d="M10.149 1.62394C9.58682 1.62375 9.03721 1.79028 8.56969 2.10249C8.10218 2.4147 7.73775 2.85855 7.52253 3.37789C7.3073 3.89724 7.25093 4.46876 7.36056 5.02014C7.47019 5.57153 7.74088 6.07802 8.1384 6.47554C8.53592 6.87306 9.04241 7.14376 9.5938 7.25338C10.1452 7.36301 10.7167 7.30665 11.236 7.09142C11.7554 6.87619 12.1992 6.51177 12.5115 6.04425C12.8237 5.57673 12.9902 5.02712 12.99 4.46494C12.9897 3.71154 12.6903 2.98908 12.1576 2.45635C11.6249 1.92361 10.9024 1.62421 10.149 1.62394ZM5.683 4.46494C5.684 3.76555 5.84929 3.07617 6.16554 2.45237C6.48179 1.82856 6.94017 1.28777 7.50372 0.873568C8.06727 0.459371 8.72024 0.183353 9.41002 0.0677569C10.0998 -0.0478391 10.8071 0.000219777 11.4749 0.208061C12.1427 0.415902 12.7523 0.777713 13.2547 1.26434C13.757 1.75096 14.138 2.34879 14.367 3.00964C14.5959 3.6705 14.6664 4.37589 14.5728 5.06899C14.4792 5.76209 14.2241 6.42351 13.828 6.99994L16 9.16894L14.852 10.3169L12.68 8.14494C12.0095 8.60697 11.2254 8.87688 10.4126 8.92548C9.59973 8.97408 8.78908 8.79953 8.06828 8.4207C7.34748 8.04187 6.74397 7.47318 6.32303 6.77614C5.90209 6.07909 5.67973 5.28023 5.68 4.46594L5.683 4.46494ZM0 0.811943H4.059V2.43594H0V0.811943ZM0 6.49994H4.059V8.12394H0V6.49994ZM14.614 12.1829V13.7999H0V12.1779L14.614 12.1829Z" fill="#86858A"/>
</svg>
