<svg width="16" height="16" viewBox="0 0 16 16" fill="none" xmlns="http://www.w3.org/2000/svg">
<path d="M8.86294 4.834L10.0139 5.985C11.082 7.05383 11.6819 8.503 11.6819 10.014C11.6819 11.525 11.082 12.9742 10.0139 14.043L9.72793 14.328C8.6494 15.3453 7.21695 15.9023 5.73453 15.8808C4.2521 15.8594 2.83635 15.2612 1.78769 14.2132C0.739018 13.1652 0.139949 11.7498 0.117592 10.2674C0.0952351 8.78496 0.651348 7.35216 1.66794 6.273L2.81994 7.428C2.05664 8.19129 1.62783 9.22654 1.62783 10.306C1.62783 11.3855 2.05664 12.4207 2.81994 13.184C3.58323 13.9473 4.61848 14.3761 5.69794 14.3761C6.77739 14.3761 7.81264 13.9473 8.57594 13.184L8.86394 12.896C9.24189 12.5181 9.5417 12.0694 9.74625 11.5756C9.9508 11.0818 10.0561 10.5525 10.0561 10.018C10.0561 9.4835 9.9508 8.95423 9.74625 8.46043C9.5417 7.96662 9.24189 7.51793 8.86394 7.14L7.71194 5.985L8.86294 4.834ZM14.3279 9.728L13.1769 8.577C13.9012 7.80676 14.2973 6.78491 14.2814 5.72777C14.2655 4.67062 13.8389 3.66115 13.0918 2.91303C12.3447 2.16491 11.3358 1.73687 10.2787 1.7195C9.22157 1.70214 8.19918 2.09682 7.42794 2.82L7.13994 3.108C6.76198 3.48593 6.46217 3.93462 6.25762 4.42843C6.05307 4.92223 5.94778 5.4515 5.94778 5.986C5.94778 6.52049 6.05307 7.04976 6.25762 7.54357C6.46217 8.03738 6.76198 8.48606 7.13994 8.864L8.29094 10.015L7.13593 11.165L5.98493 10.014C4.9169 8.94516 4.31695 7.49599 4.31695 5.985C4.31695 4.474 4.9169 3.02483 5.98493 1.956L6.27293 1.668C7.3521 0.651409 8.7849 0.0952961 10.2673 0.117653C11.7497 0.140011 13.1651 0.739079 14.2131 1.78775C15.2611 2.83642 15.8593 4.25216 15.8808 5.73459C15.9022 7.21701 15.3452 8.64946 14.3279 9.728Z" fill="#86858A"/>
</svg>
