<svg width="45" height="45" viewBox="0 0 45 45" fill="none" xmlns="http://www.w3.org/2000/svg">
<path d="M35 0H10C4.47715 0 0 4.47715 0 10V35C0 40.5228 4.47715 45 10 45H35C40.5228 45 45 40.5228 45 35V10C45 4.47715 40.5228 0 35 0Z" fill="#86858A" fill-opacity="0.2"/>
<path d="M35 0.5H10C4.75329 0.5 0.5 4.75329 0.5 10V35C0.5 40.2467 4.75329 44.5 10 44.5H35C40.2467 44.5 44.5 40.2467 44.5 35V10C44.5 4.75329 40.2467 0.5 35 0.5Z" stroke="#86858A"/>
<path d="M21.3779 31.512C19.3449 31.512 17.3119 31.521 15.2779 31.512C14.9875 31.5241 14.6989 31.4624 14.4389 31.3325C14.179 31.2026 13.9563 31.0089 13.7916 30.7695C13.6269 30.5301 13.5257 30.2528 13.4974 29.9636C13.4691 29.6744 13.5147 29.3828 13.6299 29.116C13.7457 28.8161 13.9461 28.5563 14.2066 28.3679C14.4672 28.1796 14.7768 28.0709 15.0979 28.055C17.3749 27.8288 19.562 27.0484 21.4679 25.782C23.1676 24.6916 24.6203 23.2575 25.7326 21.5719C26.8448 19.8863 27.5919 17.9866 27.9259 15.995C27.9799 15.703 28.0089 15.406 28.0449 15.111C28.0746 14.6708 28.2715 14.2587 28.5951 13.959C28.9188 13.6592 29.3448 13.4945 29.786 13.4986C30.2271 13.5027 30.65 13.6753 30.968 13.981C31.2861 14.2867 31.4753 14.7024 31.4969 15.143C31.5119 15.291 31.5079 15.443 31.5079 15.589C31.5079 19.409 31.5079 23.2287 31.5079 27.048C31.5374 27.6432 31.4416 28.238 31.2269 28.7939C31.0121 29.3498 30.683 29.8544 30.2609 30.2752C29.8389 30.6959 29.3332 31.0234 28.7766 31.2365C28.2201 31.4495 27.625 31.5434 27.0299 31.512H21.3779Z" fill="#86858A"/>
<path d="M19.4006 13.485C20.7156 13.485 22.0296 13.485 23.3446 13.485C23.5555 13.459 23.7695 13.4858 23.9674 13.5632C24.1653 13.6405 24.3408 13.7659 24.4781 13.9281C24.6154 14.0902 24.7102 14.2839 24.7539 14.4918C24.7977 14.6997 24.789 14.9153 24.7286 15.119C24.3838 17.6544 23.1777 19.9942 21.3126 21.746C19.7293 23.2703 17.7279 24.2886 15.5636 24.671C15.3422 24.7265 15.1116 24.7355 14.8865 24.6972C14.6614 24.659 14.4467 24.5743 14.256 24.4487C14.0653 24.3231 13.9028 24.1592 13.7788 23.9675C13.6548 23.7758 13.572 23.5604 13.5356 23.335C13.4909 23.1125 13.4921 22.8832 13.5391 22.6611C13.5861 22.4391 13.678 22.229 13.809 22.0437C13.9401 21.8584 14.1076 21.7018 14.3014 21.5836C14.4951 21.4653 14.7109 21.3879 14.9356 21.356C16.0948 21.148 17.1928 20.6834 18.1492 19.9963C19.1057 19.3093 19.8964 18.4171 20.4636 17.385C20.6896 16.99 20.6296 16.885 20.1736 16.885C18.5476 16.885 16.9206 16.885 15.2946 16.885C14.8902 16.9146 14.4889 16.7957 14.1659 16.5504C13.843 16.3052 13.6206 15.9505 13.5406 15.553C13.482 15.2934 13.4854 15.0237 13.5505 14.7657C13.6156 14.5078 13.7406 14.2687 13.9153 14.0681C14.09 13.8674 14.3096 13.7108 14.5562 13.6109C14.8028 13.511 15.0695 13.4706 15.3346 13.493C16.6896 13.477 18.0456 13.485 19.4006 13.485Z" fill="#86858A"/>
</svg>
