<svg width="22" height="22" viewBox="0 0 22 22" fill="none" xmlns="http://www.w3.org/2000/svg">
<path d="M9.73899 21.135C7.45299 21.135 5.16599 21.145 2.87999 21.135C2.55402 21.1484 2.22998 21.079 1.93811 20.9332C1.64624 20.7874 1.39606 20.5701 1.21093 20.3015C1.02579 20.0328 0.911724 19.7217 0.879384 19.3971C0.847045 19.0724 0.897482 18.7449 1.02599 18.445C1.15631 18.1078 1.38165 17.8156 1.67469 17.6038C1.96773 17.3921 2.31589 17.2699 2.67699 17.252C5.23753 16.9962 7.69647 16.1173 9.83899 14.692C11.7506 13.4659 13.3844 11.8532 14.6352 9.95766C15.8861 8.06215 16.7264 5.9258 17.102 3.68603C17.163 3.35803 17.196 3.02303 17.236 2.69103C17.2719 2.19784 17.4944 1.73687 17.8581 1.40184C18.2218 1.06681 18.6994 0.882888 19.1939 0.887474C19.6883 0.892059 20.1625 1.08481 20.5199 1.42652C20.8774 1.76824 21.0912 2.23326 21.118 2.72703C21.134 2.89303 21.13 3.06103 21.13 3.22703C21.13 7.52236 21.13 11.8177 21.13 16.113C21.1633 16.7824 21.0556 17.4513 20.8141 18.0765C20.5726 18.7017 20.2025 19.2693 19.7278 19.7424C19.2532 20.2156 18.6845 20.5839 18.0585 20.8234C17.4325 21.0629 16.7633 21.1684 16.094 21.133H9.73899" fill="#00E076"/>
<path d="M7.51498 0.867042C8.99298 0.867042 10.472 0.867042 11.95 0.867042C12.187 0.837778 12.4277 0.867985 12.6501 0.954941C12.8726 1.0419 13.0699 1.18286 13.2243 1.36513C13.3787 1.54739 13.4853 1.76522 13.5345 1.99897C13.5836 2.23271 13.5738 2.47502 13.506 2.70404C13.1174 5.55364 11.7613 8.18314 9.66498 10.152C7.8843 11.8666 5.63327 13.012 3.19898 13.442C2.95007 13.5046 2.69087 13.5149 2.43781 13.472C2.18475 13.4292 1.94334 13.3343 1.72889 13.1932C1.51444 13.0522 1.33163 12.8682 1.19204 12.6528C1.05245 12.4374 0.959126 12.1954 0.917983 11.942C0.867374 11.6913 0.868606 11.4329 0.921601 11.1826C0.974597 10.9324 1.07824 10.6956 1.22614 10.4869C1.37405 10.2782 1.56309 10.102 1.78165 9.96907C2.0002 9.83616 2.24364 9.74937 2.49698 9.71404C3.79976 9.48025 5.03379 8.95816 6.10877 8.18596C7.18376 7.41376 8.0725 6.411 8.70998 5.25104C8.96398 4.80704 8.89698 4.68804 8.38398 4.68604C6.55498 4.68004 4.72598 4.68604 2.89698 4.68004C2.44313 4.71336 1.99267 4.5803 1.62977 4.30573C1.26686 4.03116 1.01633 3.63385 0.924983 3.18804C0.858119 2.8961 0.861219 2.59248 0.934032 2.30196C1.00684 2.01144 1.14731 1.74225 1.34396 1.51635C1.54061 1.29045 1.78788 1.11424 2.0656 1.00209C2.34331 0.889943 2.64361 0.84504 2.94198 0.871042C4.46598 0.852042 5.98998 0.871042 7.51498 0.871042" fill="white"/>
</svg>
