<svg width="16" height="14" viewBox="0 0 16 14" fill="none" xmlns="http://www.w3.org/2000/svg">
<path d="M1.42097 12.079C0.929588 11.5675 0.549606 10.9597 0.305022 10.2939C0.0604384 9.62818 -0.043432 8.91893 -2.89613e-05 8.21099C-2.89613e-05 5.07099 2.19997 2.25599 5.41097 0.86499L6.21097 2.10099C5.20853 2.56045 4.33568 3.26135 3.67059 4.14092C3.00549 5.0205 2.56892 6.05129 2.39997 7.14099C2.9399 6.88912 3.53917 6.79218 4.13097 6.86099C4.96375 6.89348 5.74952 7.25546 6.31541 7.8673C6.8813 8.47913 7.18096 9.29071 7.14847 10.1235C7.11598 10.9563 6.754 11.742 6.14217 12.3079C5.53033 12.8738 4.71875 13.1735 3.88597 13.141C3.4252 13.1363 2.96996 13.04 2.54677 12.8577C2.12357 12.6753 1.74088 12.4106 1.42097 12.079ZM10.394 12.079C9.90259 11.5675 9.52261 10.9597 9.27802 10.2939C9.03344 9.62818 8.92957 8.91893 8.97297 8.21099C8.97297 5.07099 11.173 2.25599 14.384 0.86499L15.184 2.10099C14.1817 2.56058 13.3091 3.26153 12.6442 4.1411C11.9792 5.02066 11.5428 6.05139 11.374 7.14099C11.9139 6.88912 12.5132 6.79218 13.105 6.86099C13.9133 6.92563 14.6653 7.30037 15.2036 7.90679C15.7419 8.51321 16.0248 9.30433 15.9932 10.1146C15.9615 10.9249 15.6178 11.6915 15.0338 12.2541C14.4498 12.8167 13.6709 13.1316 12.86 13.133C12.3996 13.1295 11.9445 13.0345 11.5212 12.8535C11.0978 12.6726 10.7147 12.4093 10.394 12.079Z" fill="#86858A"/>
</svg>
