<svg width="11" height="11" viewBox="0 0 11 11" fill="none" xmlns="http://www.w3.org/2000/svg">
<path d="M1.61505 9.39291C0.844705 8.62422 0.31972 7.64428 0.10655 6.5771C-0.106619 5.50992 0.00158851 4.40349 0.417507 3.39785C0.833426 2.3922 1.53836 1.53255 2.44305 0.927705C3.34774 0.322857 4.41152 0 5.49978 0C6.58804 0 7.65185 0.322857 8.55654 0.927705C9.46123 1.53255 10.1662 2.3922 10.5821 3.39785C10.998 4.40349 11.1062 5.50992 10.893 6.5771C10.6799 7.64428 10.1549 8.62422 9.38454 9.39291C8.35347 10.4218 6.95637 10.9996 5.49978 10.9996C4.04319 10.9996 2.64612 10.4218 1.61505 9.39291Z" fill="white"/>
</svg>
