<svg width="33" height="33" viewBox="0 0 33 33" fill="none" xmlns="http://www.w3.org/2000/svg">
<path d="M25.0435 0.875129H33.0003V31.7106H25.0435V28.0748C23.8453 29.5685 22.309 30.7558 20.5614 31.5387C18.8138 32.3215 16.9051 32.6775 14.9928 32.5772C12.992 32.5986 11.0098 32.1912 9.1795 31.3827C7.34923 30.5741 5.71332 29.3829 4.38178 27.8894C1.47563 24.7384 -0.0937732 20.5823 0.00435006 16.2969C-0.0939353 12.0295 1.47657 7.89212 4.38178 4.76483C5.7102 3.26323 7.34411 2.06279 9.17411 1.2439C11.0041 0.425005 12.988 0.00655683 14.9928 0.0165763C16.9051 -0.0837258 18.8138 0.272243 20.5614 1.0551C22.309 1.83796 23.8453 3.02524 25.0435 4.51895V0.875129ZM16.4701 24.9892C17.5983 25.0265 18.7223 24.8323 19.7726 24.4184C20.8228 24.0045 21.7772 23.3798 22.5767 22.5829C23.3952 21.759 24.0363 20.7762 24.4605 19.6951C24.8848 18.614 25.0832 17.4575 25.0435 16.2969C25.0894 15.1439 24.8936 13.9941 24.4688 12.9213C24.044 11.8484 23.3995 10.8763 22.5767 10.0673C20.9381 8.48483 18.7491 7.60038 16.4711 7.60038C14.1931 7.60038 12.0041 8.48483 10.3655 10.0673C9.56177 10.8877 8.93345 11.8631 8.51871 12.934C8.10398 14.005 7.91151 15.1492 7.95304 16.2969C7.91823 17.4531 8.11419 18.6046 8.52943 19.6843C8.94467 20.7639 9.5709 21.75 10.3715 22.5849C11.1708 23.3816 12.1248 24.0061 13.1747 24.42C14.2246 24.8339 15.3482 25.0283 16.4761 24.9913" fill="white"/>
</svg>
