<svg width="40" height="40" viewBox="0 0 40 40" fill="none" xmlns="http://www.w3.org/2000/svg">
<path d="M20.9259 0.0341487C25.5865 0.0341487 30.2471 0.0199641 34.9078 0.0341487C35.6552 -0.0580674 36.4137 0.0371912 37.1151 0.311334C37.8165 0.585477 38.4386 1.02988 38.9253 1.60448C39.412 2.17907 39.7481 2.86577 39.9032 3.60267C40.0583 4.33957 40.0275 5.10348 39.8136 5.82551C38.5892 14.8099 34.3147 23.1007 27.7061 29.3091C22.092 34.7146 14.9953 38.3258 7.32081 39.6821C6.53545 39.8791 5.71772 39.9108 4.91946 39.7751C4.12121 39.6395 3.35986 39.3394 2.6837 38.8939C2.00754 38.4485 1.43131 37.8674 0.991577 37.1875C0.55184 36.5076 0.258184 35.7438 0.129231 34.9444C-0.0290283 34.1547 -0.0242028 33.3409 0.143411 32.553C0.311025 31.7652 0.637891 31.0199 1.10394 30.363C1.56999 29.706 2.1654 29.1512 2.8536 28.7327C3.5418 28.3142 4.30829 28.0407 5.10599 27.9291C9.21307 27.1916 13.1034 25.5454 16.4923 23.1108C19.8812 20.6762 22.683 17.5149 24.6929 13.858C25.5034 12.4578 25.2825 12.0829 23.6655 12.0769C17.8985 12.0566 12.1314 12.0769 6.36639 12.0566C4.93503 12.1621 3.51426 11.7426 2.3697 10.8766C1.22514 10.0107 0.435167 8.75747 0.147469 7.35137C-0.0603557 6.4312 -0.0483649 5.47501 0.182469 4.56035C0.413302 3.64569 0.856478 2.79832 1.47605 2.08697C2.09562 1.37562 2.87414 0.820321 3.74845 0.466119C4.62277 0.111917 5.56826 -0.031215 6.50824 0.0483333C11.3148 -0.0104314 16.1193 0.0341487 20.9259 0.0341487Z" fill="white"/>
</svg>
