<svg width="38" height="43" viewBox="0 0 38 43" fill="none" xmlns="http://www.w3.org/2000/svg">
<path d="M17.074 0.00497619C19.8289 -0.0571643 22.5659 0.46329 25.1057 1.53226C27.6454 2.60123 29.9308 4.1946 31.8121 6.20806C33.7773 8.22899 35.317 10.6237 36.3401 13.2504C37.3632 15.877 37.8489 18.6823 37.7683 21.5C37.8489 24.3178 37.3632 27.123 36.3401 29.7497C35.317 32.3764 33.7773 34.771 31.8121 36.792C29.9307 38.8053 27.6454 40.3986 25.1056 41.4676C22.5658 42.5366 19.8289 43.0571 17.074 42.9951H0V0.00497619H17.074ZM17.074 34.8895C18.7635 34.954 20.4474 34.6588 22.0143 34.0236C23.5811 33.3884 24.9952 32.4277 26.1629 31.205C28.5541 28.5531 29.8105 25.0697 29.6628 21.502C29.7408 19.7452 29.4718 17.9903 28.8713 16.3374C28.2708 14.6846 27.3504 13.1663 26.1629 11.8693C25.0077 10.6263 23.5974 9.64791 22.0285 9.00119C20.4597 8.35447 18.7696 8.05474 17.074 8.12256H8.4748V34.8895H17.074Z" fill="white"/>
</svg>
