<svg width="32" height="32" viewBox="0 0 32 32" fill="none" xmlns="http://www.w3.org/2000/svg">
<path d="M14.178 0C16.9821 0 19.7233 0.831525 22.0549 2.38942C24.3864 3.94732 26.2037 6.16162 27.2768 8.75231C28.3499 11.343 28.6306 14.1937 28.0836 16.944C27.5365 19.6943 26.1862 22.2205 24.2034 24.2034C22.2205 26.1862 19.6943 27.5365 16.944 28.0836C14.1937 28.6306 11.343 28.3499 8.75231 27.2768C6.16162 26.2037 3.94732 24.3864 2.38942 22.0549C0.831525 19.7233 0 16.9821 0 14.178C0.00106033 10.4181 1.49515 6.81247 4.15381 4.15381C6.81247 1.49515 10.4181 0.00106033 14.178 0ZM14.178 25.2C16.3594 25.2 18.4918 24.5531 20.3055 23.341C22.1191 22.129 23.5326 20.4063 24.3671 18.3908C25.2016 16.3754 25.4197 14.1577 24.9937 12.0183C24.5677 9.87895 23.5167 7.91396 21.9739 6.3719C20.431 4.82985 18.4654 3.78001 16.3258 3.35517C14.1862 2.93033 11.9686 3.14958 9.95361 3.98518C7.93861 4.82078 6.21669 6.2352 5.00564 8.04954C3.79458 9.86387 3.14881 11.9966 3.15 14.178C3.15026 15.6259 3.43573 17.0595 3.99011 18.397C4.54448 19.7345 5.3569 20.9498 6.38098 21.9733C7.40505 22.9968 8.62071 23.8085 9.95853 24.3622C11.2964 24.9158 12.7301 25.2005 14.178 25.2ZM27.544 25.312L32 29.772L29.772 32L25.316 27.544L27.544 25.312Z" fill="#00E076"/>
</svg>
