<svg width="33" height="45" viewBox="0 0 33 45" fill="none" xmlns="http://www.w3.org/2000/svg">
<path d="M0 34.2902L7.28907 30.029C7.9755 32.08 9.32625 33.8434 11.1276 35.0404C12.9289 36.2374 15.0779 36.7995 17.2346 36.6379C21.9924 36.6379 24.1543 34.7242 24.1543 32.0678C24.1762 31.3493 23.9969 30.639 23.6367 30.017C23.2765 29.395 22.7496 28.886 22.1155 28.5474C19.8177 27.3065 17.3671 26.372 14.8265 25.7678C11.6277 24.9697 8.59586 23.6103 5.87204 21.7529C4.51653 20.7166 3.4358 19.3638 2.72457 17.8129C2.01334 16.262 1.69332 14.5603 1.7925 12.857C1.71565 11.0881 2.04944 9.32543 2.76772 7.70711C3.486 6.0888 4.56925 4.65878 5.93259 3.52912C8.75344 1.17202 12.3343 -0.0804222 16.0094 0.00467825C19.2498 -0.072424 22.4414 0.804989 25.1871 2.52775C27.9327 4.25051 30.1112 6.74257 31.4515 9.69386L24.2855 13.834C23.648 12.1668 22.5104 10.7376 21.0287 9.74238C19.547 8.74713 17.7938 8.23451 16.0094 8.2748C12.4869 8.2748 10.325 10.0653 10.325 12.5986C10.3144 13.2475 10.4604 13.8894 10.7507 14.4699C11.0409 15.0504 11.4669 15.5524 11.9924 15.9333C14.0435 17.1282 16.246 18.0421 18.5406 18.6503L21.5059 19.6374C22.4522 19.9326 23.3803 20.2831 24.2855 20.687C25.2403 21.0082 26.1527 21.4441 27.0025 21.985C28.6308 22.9432 30.024 24.2537 31.08 25.8203C32.168 27.6728 32.7266 29.7884 32.6949 31.9366C32.7622 33.7585 32.3986 35.5705 31.6336 37.2254C30.8686 38.8803 29.7238 40.3312 28.2924 41.4602C25.0512 43.9182 21.0521 45.1643 16.9884 44.9827C8.40133 44.9827 2.41018 40.9051 0 34.2943" fill="#00E076"/>
</svg>
