<svg width="45" height="45" viewBox="0 0 45 45" fill="none" xmlns="http://www.w3.org/2000/svg">
<path d="M22.4523 44.9983C19.4882 45.0349 16.5469 44.4769 13.8022 43.3573C11.0574 42.2377 8.56496 40.5793 6.47209 38.48C4.37923 36.3807 2.7284 33.8832 1.61722 31.1351C0.506029 28.3869 -0.0429765 25.4439 0.00262475 22.48C0.00262458 19.5279 0.58407 16.6047 1.71379 13.8773C2.84352 11.1499 4.49937 8.67169 6.58683 6.58423C8.67429 4.49677 11.1525 2.84091 13.8799 1.71119C16.6073 0.581461 19.5305 0 22.4826 0C25.4347 0 28.3579 0.581461 31.0853 1.71119C33.8127 2.84091 36.2909 4.49677 38.3783 6.58423C40.4658 8.67169 42.1216 11.1499 43.2514 13.8773C44.3811 16.6047 44.9626 19.5279 44.9626 22.48C44.9942 25.4452 44.4336 28.387 43.3137 31.1328C42.1937 33.8786 40.5369 36.3732 38.4404 38.4705C36.3439 40.5677 33.8499 42.2254 31.1045 43.3463C28.3591 44.4673 25.4175 45.0289 22.4523 44.9983ZM22.4523 36.6502C24.2941 36.7038 26.1274 36.3802 27.8396 35.6994C29.5519 35.0187 31.1068 33.995 32.409 32.6913C33.7389 31.3542 34.7814 29.7594 35.4726 28.0048C36.1638 26.2503 36.4891 24.3729 36.4285 22.4881C36.4891 20.6032 36.1638 18.7259 35.4726 16.9713C34.7814 15.2167 33.7389 13.6219 32.409 12.2848C29.735 9.70766 26.166 8.26773 22.4523 8.26773C18.7386 8.26773 15.1695 9.70766 12.4955 12.2848C11.1654 13.6218 10.1226 15.2165 9.43106 16.9711C8.73952 18.7257 8.41385 20.6031 8.47404 22.4881C8.41385 24.373 8.73952 26.2504 9.43106 28.005C10.1226 29.7596 11.1654 31.3543 12.4955 32.6913C13.7977 33.995 15.3527 35.0187 17.0649 35.6994C18.7771 36.3802 20.6104 36.7038 22.4523 36.6502Z" fill="#00E076"/>
</svg>
