<svg width="16" height="16" viewBox="0 0 16 16" fill="none" xmlns="http://www.w3.org/2000/svg">
<path d="M6.79502 0L12.634 1.825C12.7967 1.87594 12.9389 1.97754 13.0398 2.11497C13.1408 2.25241 13.1951 2.41849 13.195 2.589V4H14.795C15.0072 4 15.2107 4.08429 15.3607 4.23431C15.5107 4.38434 15.595 4.58783 15.595 4.8V11.2C15.595 11.4122 15.5107 11.6157 15.3607 11.7657C15.2107 11.9157 15.0072 12 14.795 12H12.224C11.9107 12.4132 11.5324 12.7728 11.104 13.065L6.79502 16L2.49502 13.065C1.84849 12.6251 1.31922 12.034 0.953227 11.343C0.587235 10.6519 0.395611 9.88196 0.39502 9.1V2.588C0.394906 2.41749 0.449273 2.25141 0.550191 2.11397C0.651109 1.97654 0.793299 1.87494 0.95602 1.824L6.79502 0ZM6.79502 1.675L1.99502 3.175V9.1C1.99501 9.5898 2.10743 10.0731 2.32362 10.5126C2.53982 10.9521 2.85402 11.3361 3.24202 11.635L3.39502 11.743L6.79502 14.063L9.82502 12H5.99502C5.78285 12 5.57936 11.9157 5.42933 11.7657C5.2793 11.6157 5.19502 11.4122 5.19502 11.2V4.8C5.19502 4.58783 5.2793 4.38434 5.42933 4.23431C5.57936 4.08429 5.78285 4 5.99502 4H11.595V3.176L6.79502 1.675ZM6.79502 8V10.4H13.995V8H6.79502ZM6.79502 6.4H13.995V5.6H6.79502V6.4Z" fill="#86858A"/>
</svg>
