<svg width="36" height="36" viewBox="0 0 36 36" fill="none" xmlns="http://www.w3.org/2000/svg">
<path d="M11.676 7.784C11.676 7.01424 11.4477 6.26176 11.0201 5.62172C10.5924 4.98168 9.98458 4.48284 9.27341 4.18826C8.56224 3.89368 7.77969 3.81661 7.02471 3.96678C6.26974 4.11696 5.57625 4.48763 5.03194 5.03194C4.48764 5.57625 4.11696 6.26973 3.96679 7.02471C3.81661 7.77968 3.89369 8.56223 4.18826 9.2734C4.48284 9.98457 4.98169 10.5924 5.62172 11.0201C6.26176 11.4477 7.01424 11.676 7.784 11.676C8.81623 11.676 9.80617 11.266 10.5361 10.5361C11.266 9.80617 11.676 8.81622 11.676 7.784ZM15.568 7.784C15.568 9.32353 15.1115 10.8285 14.2562 12.1086C13.4008 13.3886 12.1852 14.3863 10.7628 14.9755C9.34047 15.5646 7.77537 15.7188 6.26542 15.4184C4.75547 15.1181 3.3685 14.3767 2.27988 13.2881C1.19127 12.1995 0.449918 10.8125 0.149571 9.30258C-0.150776 7.79263 0.00337249 6.22753 0.592525 4.80519C1.18168 3.38285 2.17937 2.16716 3.45944 1.31184C4.73952 0.456524 6.24447 0 7.784 0C9.84845 0 11.8283 0.820097 13.2881 2.27988C14.7479 3.73966 15.568 5.71955 15.568 7.784ZM36 1.946H20.432V5.838H36V1.946ZM36 15.568H20.432V19.46H36V15.568ZM36 29.19H20.432V33.082H36V29.19ZM7.784 31.136C7.01424 31.136 6.26176 30.9077 5.62172 30.4801C4.98169 30.0524 4.48284 29.4446 4.18826 28.7334C3.89369 28.0222 3.81661 27.2397 3.96679 26.4847C4.11696 25.7297 4.48764 25.0362 5.03194 24.4919C5.57625 23.9476 6.26974 23.577 7.02471 23.4268C7.77969 23.2766 8.56224 23.3537 9.27341 23.6483C9.98458 23.9428 10.5924 24.4417 11.0201 25.0817C11.4477 25.7218 11.676 26.4742 11.676 27.244C11.676 28.2762 11.266 29.2662 10.5361 29.9961C9.80617 30.726 8.81623 31.136 7.784 31.136ZM7.784 35.028C9.32353 35.028 10.8285 34.5715 12.1086 33.7162C13.3886 32.8608 14.3863 31.6451 14.9755 30.2228C15.5646 28.8005 15.7188 27.2354 15.4184 25.7254C15.1181 24.2155 14.3767 22.8285 13.2881 21.7399C12.1995 20.6513 10.8125 19.9099 9.30259 19.6096C7.79264 19.3092 6.22754 19.4634 4.8052 20.0525C3.38286 20.6417 2.16716 21.6394 1.31184 22.9194C0.456527 24.1995 3.34198e-06 25.7045 3.34198e-06 27.244C3.34198e-06 29.3084 0.820101 31.2883 2.27988 32.7481C3.73967 34.2079 5.71956 35.028 7.784 35.028ZM7.784 9.73C8.16889 9.73 8.54513 9.61587 8.86514 9.40204C9.18516 9.18821 9.43458 8.88429 9.58187 8.5287C9.72916 8.17312 9.7677 7.78184 9.69261 7.40435C9.61753 7.02687 9.43219 6.68012 9.16003 6.40797C8.88788 6.13582 8.54114 5.95048 8.16365 5.87539C7.78616 5.8003 7.39489 5.83884 7.0393 5.98613C6.68372 6.13342 6.37979 6.38284 6.16596 6.70286C5.95213 7.02288 5.838 7.39912 5.838 7.784C5.838 8.30011 6.04303 8.79508 6.40797 9.16003C6.77292 9.52497 7.26789 9.73 7.784 9.73Z" fill="#00E076"/>
</svg>
