<svg width="15" height="16" viewBox="0 0 15 16" fill="none" xmlns="http://www.w3.org/2000/svg">
<path d="M11.7799 3.785L12.8869 2.678L13.9639 3.755L12.8579 4.863C13.9517 6.23203 14.4797 7.9679 14.3336 9.71411C14.1875 11.4603 13.3783 13.0843 12.0723 14.2525C10.7662 15.4207 9.06238 16.0445 7.31075 15.9958C5.55913 15.947 3.89265 15.2294 2.65359 13.9903C1.41452 12.7513 0.69692 11.0848 0.648165 9.33318C0.59941 7.58156 1.2232 5.87774 2.39142 4.57167C3.55965 3.2656 5.18363 2.45641 6.92983 2.3103C8.67603 2.16419 10.4119 2.69223 11.7809 3.786L11.7799 3.785ZM7.49993 14.476C8.5547 14.476 9.58578 14.1632 10.4628 13.5772C11.3398 12.9912 12.0233 12.1583 12.427 11.1839C12.8306 10.2094 12.9362 9.13708 12.7305 8.10258C12.5247 7.06808 12.0168 6.11783 11.2709 5.372C10.5251 4.62617 9.57485 4.11825 8.54035 3.91247C7.50585 3.7067 6.43356 3.81231 5.45908 4.21595C4.4846 4.61959 3.6517 5.30314 3.06571 6.18014C2.47971 7.05715 2.16693 8.08823 2.16693 9.143C2.16693 10.5574 2.7288 11.9139 3.72893 12.914C4.72906 13.9141 6.08553 14.476 7.49993 14.476ZM6.74293 5.333H8.26693V9.9H6.74293V5.333ZM4.45293 0H10.5529V1.524H4.45293V0Z" fill="#86858A"/>
</svg>
