<svg width="13" height="16" viewBox="0 0 13 16" fill="none" xmlns="http://www.w3.org/2000/svg">
<path d="M0.404903 16C0.371634 15.1788 0.504647 14.3594 0.795955 13.5909C1.08726 12.8224 1.53086 12.1207 2.10011 11.5279C2.66937 10.9351 3.35254 10.4635 4.10861 10.1413C4.86467 9.81912 5.67805 9.65305 6.4999 9.65305C7.32175 9.65305 8.13513 9.81912 8.8912 10.1413C9.64727 10.4635 10.3304 10.9351 10.8997 11.5279C11.4689 12.1207 11.9125 12.8224 12.2038 13.5909C12.4952 14.3594 12.6282 15.1788 12.5949 16H11.0719C11.0719 14.7875 10.5903 13.6248 9.73294 12.7674C8.87562 11.9101 7.71284 11.4285 6.5004 11.4285C5.28797 11.4285 4.12519 11.9101 3.26786 12.7674C2.41054 13.6248 1.9289 14.7875 1.9289 16H0.404903ZM6.5049 9.14298C5.60084 9.14298 4.71709 8.87489 3.96539 8.37263C3.21369 7.87036 2.62782 7.15647 2.28185 6.32122C1.93588 5.48598 1.84536 4.56691 2.02173 3.68022C2.19811 2.79353 2.63345 1.97906 3.27272 1.33979C3.91198 0.700528 4.72646 0.265182 5.61314 0.0888091C6.49983 -0.087564 7.41891 0.00295717 8.25415 0.348925C9.08939 0.694893 9.80328 1.28077 10.3055 2.03247C10.8078 2.78416 11.0759 3.66792 11.0759 4.57198C11.076 5.17229 10.9579 5.76674 10.7282 6.32138C10.4986 6.87602 10.1619 7.37997 9.73738 7.80446C9.3129 8.22894 8.80894 8.56563 8.2543 8.7953C7.69967 9.02497 7.10521 9.14311 6.5049 9.14298ZM6.5049 7.61898C7.10757 7.61819 7.69647 7.43875 8.19719 7.10335C8.6979 6.76796 9.08795 6.29165 9.31803 5.73463C9.54812 5.17761 9.60791 4.56489 9.48985 3.9739C9.37179 3.3829 9.08118 2.84018 8.65475 2.41431C8.22832 1.98844 7.68521 1.69854 7.09407 1.58126C6.50292 1.46397 5.89028 1.52457 5.33356 1.75538C4.77684 1.98619 4.30105 2.37686 3.96631 2.87802C3.63156 3.37917 3.4529 3.96831 3.4529 4.57098C3.45277 4.97162 3.53165 5.36836 3.68503 5.73848C3.83841 6.1086 4.06328 6.44484 4.34676 6.72795C4.63024 7.01106 4.96678 7.23549 5.3371 7.38838C5.70742 7.54127 6.10426 7.61964 6.5049 7.61898Z" fill="#86858A"/>
</svg>
